<?xml version="1.0" encoding="iso-8859-1"?>
<!-- Generator: Adobe Illustrator 23.1.1, SVG Export Plug-In . SVG Version: 6.00 Build 0)  -->
<svg version="1.1" id="_x31_-outline-expand" xmlns="http://www.w3.org/2000/svg" xmlns:xlink="http://www.w3.org/1999/xlink"
	 x="0px" y="0px" viewBox="0 0 64 64" style="enable-background:new 0 0 64 64;" xml:space="preserve">
<path style="fill:#CAEAE9;" d="M38,62H12c-2.209,0-4-1.791-4-4V6c0-2.209,1.791-4,4-4h26c2.209,0,4,1.791,4,4v52
	C42,60.209,40.209,62,38,62L38,62z"/>
<path style="fill:#F2DAAE;" d="M42,49h20V25H48V14c-3.313,0-6,2.687-6,6V49z"/>
<path style="fill:#F2DAAE;" d="M8,28c0,1.657-1.343,3-3,3s-3-1.343-3-3c0-1.657,1.343-3,3-3S8,26.343,8,28L8,28z"/>
<path style="fill:#F2DAAE;" d="M8,34c0,1.657-1.343,3-3,3s-3-1.343-3-3s1.343-3,3-3S8,32.342,8,34L8,34z"/>
<path style="fill:#F2DAAE;" d="M8,40c0,1.657-1.343,3-3,3s-3-1.343-3-3s1.343-3,3-3S8,38.342,8,40L8,40z"/>
<path style="fill:#F2DAAE;" d="M8,46c0,1.657-1.343,3-3,3s-3-1.343-3-3s1.343-3,3-3S8,44.342,8,46L8,46z"/>
<path style="fill:#62C4C3;" d="M42,8H8V6c0-2.209,1.791-4,4-4h26c2.209,0,4,1.791,4,4V8z"/>
<path style="fill:#62C4C3;" d="M8,56h34v2c0,2.209-1.791,4-4,4H12c-2.209,0-4-1.791-4-4V56z"/>
<rect x="12" y="15" style="fill:#EFBC2E;" width="10" height="8"/>
<rect x="28" y="28" style="fill:#EFBC2E;" width="10" height="8"/>
<rect x="25" y="13.999" style="fill:#3A4249;" width="14" height="2"/>
<rect x="25" y="17.999" style="fill:#3A4249;" width="14" height="2"/>
<rect x="25" y="21.999" style="fill:#3A4249;" width="10" height="2"/>
<rect x="12" y="41" style="fill:#EFBC2E;" width="10" height="8"/>
<rect x="25" y="39.999" style="fill:#3A4249;" width="14" height="2"/>
<rect x="25" y="43.999" style="fill:#3A4249;" width="14" height="2"/>
<rect x="25" y="47.999" style="fill:#3A4249;" width="2" height="2"/>
<rect x="11" y="26.999" style="fill:#3A4249;" width="14" height="2"/>
<rect x="11" y="30.999" style="fill:#3A4249;" width="14" height="2"/>
<rect x="11" y="34.999" style="fill:#3A4249;" width="14" height="2"/>
<rect x="37" y="21.999" style="fill:#3A4249;" width="2" height="2"/>
<rect x="29" y="47.999" style="fill:#3A4249;" width="2" height="2"/>
<rect x="33" y="47.999" style="fill:#3A4249;" width="2" height="2"/>
<rect x="37" y="47.999" style="fill:#3A4249;" width="2" height="2"/>
</svg>
